<?xml version="1.0" encoding="UTF-8" standalone="no"?>
<svg xmlns="http://www.w3.org/2000/svg" xmlns:xlink="http://www.w3.org/1999/xlink" viewBox="0 0 1000 1000" width="1000" height="1000">
  <defs>
    <style>
      .wordmark { font-family: 'Inter','Helvetica Neue','Segoe UI','Nunito Sans',Arial,sans-serif; font-weight: 600; }
      .wordmark-light { font-family: 'Inter','Helvetica Neue','Segoe UI','Nunito Sans',Arial,sans-serif; font-weight: 400; letter-spacing: 0.18em; }
      .wordmark-black { font-family: 'Inter','Helvetica Neue','Segoe UI','Nunito Sans',Arial,sans-serif; font-weight: 700; }
    </style>
    <path id="topCurve" d="M 145.0 500.0 A 355 355 0 0 1 855.0 500.0" fill="none"/>
    <path id="bottomCurve" d="M 145.0 500.0 A 355 355 0 0 0 855.0 500.0" fill="none"/>

  </defs>
  <g id="background"></g>
  <g id="frame">
    <circle cx="500.0" cy="500.0" r="430" fill="none" stroke="#FFCE00" stroke-width="8"/>
    <circle cx="500.0" cy="500.0" r="400" fill="none" stroke="#000080" stroke-width="2" opacity="0.5"/>
    <circle cx="163.0" cy="502.0" r="6" fill="#FF9933"/>
    <circle cx="837.0" cy="502.0" r="6" fill="#FF9933"/>
  </g>
  <g id="roots" stroke="#000080" stroke-width="8" fill="none" stroke-linecap="round">
    <path d="M 500.0 640 C 470.0 670, 400.0 680, 350.0 695"/>
    <path d="M 500.0 640 C 530.0 670, 600.0 680, 650.0 695"/>
    <path d="M 500.0 640 C 490.0 680, 455.0 705, 430.0 725"/>
    <path d="M 500.0 640 C 510.0 680, 545.0 705, 570.0 725"/>
    <circle cx="350.0" cy="695" r="5" fill="#FF9933" stroke="none"/>
    <circle cx="650.0" cy="695" r="5" fill="#FF9933" stroke="none"/>
  </g>
  <g id="trunk">
      <path d="M 486.00 430.00 L 514.00 430.00 L 532.00 640.00 L 468.00 640.00 Z" fill="#000080"/>
  </g>
  <g id="canopy">
      <ellipse cx="500.00" cy="290.00" rx="18.00" ry="44.00" transform="rotate(0.00 500.00 290.00)" fill="#FFCE00" opacity="1.00"/>
      <ellipse cx="466.00" cy="330.00" rx="24.00" ry="46.00" transform="rotate(-22.00 466.00 330.00)" fill="#FF9933" opacity="1.00"/>
      <ellipse cx="534.00" cy="330.00" rx="24.00" ry="46.00" transform="rotate(22.00 534.00 330.00)" fill="#FF9933" opacity="1.00"/>
      <ellipse cx="438.00" cy="378.00" rx="22.00" ry="42.00" transform="rotate(-48.00 438.00 378.00)" fill="#FFCE00" opacity="1.00"/>
      <ellipse cx="562.00" cy="378.00" rx="22.00" ry="42.00" transform="rotate(48.00 562.00 378.00)" fill="#FFCE00" opacity="1.00"/>
      <ellipse cx="375.23" cy="305.57" rx="17.19" ry="38.81" transform="rotate(-65.63 375.23 305.57)" fill="#138808" opacity="0.92"/>
      <ellipse cx="392.10" cy="283.54" rx="19.02" ry="39.38" transform="rotate(-59.11 392.10 283.54)" fill="#000080" opacity="0.85"/>
      <ellipse cx="414.16" cy="265.20" rx="16.07" ry="40.86" transform="rotate(-42.63 414.16 265.20)" fill="#138808" opacity="0.92"/>
      <ellipse cx="440.37" cy="251.43" rx="17.17" ry="41.97" transform="rotate(-25.80 440.37 251.43)" fill="#000080" opacity="0.85"/>
      <ellipse cx="469.45" cy="242.89" rx="20.18" ry="38.33" transform="rotate(-9.82 469.45 242.89)" fill="#138808" opacity="0.92"/>
      <ellipse cx="500.00" cy="240.00" rx="16.75" ry="39.44" transform="rotate(7.36 500.00 240.00)" fill="#000080" opacity="0.85"/>
      <ellipse cx="530.55" cy="242.89" rx="18.62" ry="40.19" transform="rotate(16.03 530.55 242.89)" fill="#138808" opacity="0.92"/>
      <ellipse cx="559.63" cy="251.43" rx="16.32" ry="40.31" transform="rotate(27.03 559.63 251.43)" fill="#000080" opacity="0.85"/>
      <ellipse cx="585.84" cy="265.20" rx="17.51" ry="35.22" transform="rotate(45.13 585.84 265.20)" fill="#138808" opacity="0.92"/>
      <ellipse cx="607.90" cy="283.54" rx="18.36" ry="40.03" transform="rotate(58.00 607.90 283.54)" fill="#000080" opacity="0.85"/>
      <ellipse cx="624.77" cy="305.57" rx="19.57" ry="41.45" transform="rotate(60.92 624.77 305.57)" fill="#138808" opacity="0.92"/>
      <ellipse cx="595.00" cy="310.00" rx="12.00" ry="30.00" transform="rotate(25.00 595.00 310.00)" fill="#DD0000" opacity="1.00"/>
      <ellipse cx="405.00" cy="310.00" rx="12.00" ry="30.00" transform="rotate(-25.00 405.00 310.00)" fill="#DD0000" opacity="1.00"/>
  </g>
  <g id="text">
    <text class="wordmark-light" font-size="42" fill="#000080" letter-spacing="10" text-anchor="middle">
      <textPath href="#topCurve" startOffset="50%">INDISCHER DACHVERBAND</textPath>
    </text>
    <text class="wordmark-black" font-size="46" fill="#111111" letter-spacing="12" text-anchor="middle">
      <textPath href="#bottomCurve" startOffset="50%">DEUTSCHLAND</textPath>
    </text>
  </g>
</svg>
